<svg xmlns="http://www.w3.org/2000/svg" version="1.1" xmlns:xlink="http://www.w3.org/1999/xlink" viewBox="0 0 200 200"><rect width="200" height="200" fill="url('#gradient')"></rect><defs><linearGradient id="gradient" gradientTransform="rotate(0 0.5 0.5)"><stop offset="0%" stop-color="#ffffff"></stop><stop offset="100%" stop-color="#c3b000"></stop></linearGradient></defs><g><g fill="#000000" transform="matrix(2.514928243823051,0,0,2.514928243823051,14.301669956650457,112.77395891829309)" stroke="#ffffff" stroke-width="0"><path d="M8.87 0L6.36-5.02L4.50-5.02L4.50 0L1.07 0L1.07-14.22L6.67-14.22Q9.20-14.22 10.63-13.10Q12.05-11.97 12.05-9.92L12.05-9.92Q12.05-8.44 11.45-7.46Q10.85-6.48 9.57-5.88L9.57-5.88L12.54-0.15L12.54 0L8.87 0ZM4.50-11.57L4.50-7.67L6.67-7.67Q7.65-7.67 8.14-8.18Q8.63-8.69 8.63-9.61Q8.63-10.53 8.13-11.05Q7.64-11.57 6.67-11.57L6.67-11.57L4.50-11.57ZM20.36 0L20.26-1.14Q19.22 0.20 17.44 0.20L17.44 0.20Q15.70 0.20 14.81-0.82Q13.92-1.83 13.92-3.72L13.92-3.72L13.92-10.57L17.21-10.57L17.21-3.70Q17.21-2.34 18.53-2.34L18.53-2.34Q19.66-2.34 20.14-3.15L20.14-3.15L20.14-10.57L23.45-10.57L23.45 0L20.36 0ZM35.06-5.36L35.06-5.21Q35.06-2.74 33.95-1.27Q32.84 0.20 30.96 0.20L30.96 0.20Q29.50 0.20 28.56-0.87L28.56-0.87L28.56 4.06L25.27 4.06L25.27-10.57L28.35-10.57L28.45-9.59Q29.39-10.76 30.94-10.76L30.94-10.76Q32.89-10.76 33.97-9.32Q35.06-7.88 35.06-5.36L35.06-5.36ZM31.77-5.06L31.77-5.41Q31.77-8.22 30.13-8.22L30.13-8.22Q28.96-8.22 28.56-7.38L28.56-7.38L28.56-3.22Q28.99-2.34 30.15-2.34L30.15-2.34Q31.72-2.34 31.77-5.06L31.77-5.06ZM41.62 0.20L41.62 0.20Q39.19 0.20 37.69-1.25Q36.18-2.71 36.18-5.03L36.18-5.03L36.18-5.30Q36.18-6.92 36.78-8.16Q37.38-9.40 38.54-10.08Q39.69-10.76 41.27-10.76L41.27-10.76Q43.50-10.76 44.79-9.38Q46.07-8.00 46.07-5.53L46.07-5.53L46.07-4.25L39.53-4.25Q39.71-3.36 40.30-2.85Q40.90-2.34 41.85-2.34L41.85-2.34Q43.41-2.34 44.29-3.44L44.29-3.44L45.79-1.66Q45.18-0.81 44.05-0.31Q42.92 0.20 41.62 0.20ZM41.25-8.22L41.25-8.22Q39.80-8.22 39.53-6.31L39.53-6.31L42.85-6.31L42.85-6.56Q42.87-7.35 42.45-7.79Q42.03-8.22 41.25-8.22ZM50.20-10.57L51.68-7.66L53.21-10.57L56.63-10.57L53.85-5.42L56.77 0L53.33 0L51.67-3.13L50.04 0L46.58 0L49.51-5.42L46.74-10.57L50.20-10.57ZM56.89-4.82L56.88-5.38Q56.88-6.96 57.50-8.20Q58.12-9.43 59.27-10.10Q60.42-10.76 61.97-10.76L61.97-10.76Q64.35-10.76 65.71-9.29Q67.08-7.82 67.08-5.29L67.08-5.29L67.08-5.18Q67.08-2.71 65.71-1.25Q64.34 0.20 61.99 0.20L61.99 0.20Q59.74 0.20 58.37-1.16Q57.00-2.51 56.89-4.82L56.89-4.82ZM60.19-5.77L60.18-5.18Q60.18-3.71 60.63-3.03Q61.09-2.34 61.99-2.34L61.99-2.34Q63.75-2.34 63.79-5.05L63.79-5.05L63.79-5.38Q63.79-8.22 61.97-8.22L61.97-8.22Q60.32-8.22 60.19-5.77L60.19-5.77Z"></path></g></g></svg>